<?xml version="1.0" encoding="iso-8859-1"?>
<!-- Generator: Adobe Illustrator 19.0.0, SVG Export Plug-In . SVG Version: 6.00 Build 0)  -->
<svg version="1.1" id="Layer_1" xmlns="http://www.w3.org/2000/svg" xmlns:xlink="http://www.w3.org/1999/xlink" x="0px" y="0px"
	 viewBox="0 0 512 512" style="enable-background:new 0 0 512 512;" xml:space="preserve">
<g>
	<path style="fill:#CBD4D8;" d="M256,512c-5.207,0-8.678-3.471-8.678-8.678v-43.39c0-5.207,3.471-8.678,8.678-8.678
		s8.678,3.471,8.678,8.678v43.39C264.678,508.529,261.207,512,256,512"/>
	<path style="fill:#CBD4D8;" d="M186.576,112.814h-34.712V17.356C151.864,7.81,159.675,0,169.22,0s17.356,7.81,17.356,17.356
		V112.814z"/>
</g>
<path style="fill:#E8EDEE;" d="M203.932,425.22L203.932,425.22c0,19.092,15.62,34.712,34.712,34.712h34.712
	c19.092,0,34.712-15.62,34.712-34.712v-22.563c0-41.654,15.62-81.573,43.39-111.946l0,0c27.769-30.373,43.39-70.292,43.39-111.946
	v-65.953H117.153v65.953c0,41.654,15.62,81.573,43.39,111.946c27.769,30.373,43.39,71.159,43.39,111.946V425.22z"/>
<path style="fill:#CBD4D8;" d="M325.424,112.814h34.712V17.356C360.136,7.81,352.325,0,342.78,0s-17.356,7.81-17.356,17.356V112.814
	z"/>
<path style="fill:#ECBA16;" d="M229.966,295.051c-2.603,0-4.339-0.868-6.075-2.603c-3.471-3.471-3.471-8.678,0-12.149l45.993-45.993
	h-48.597c-3.471,0-6.942-1.736-7.81-5.207c-1.736-3.471-0.868-6.942,1.736-9.546l60.746-60.746c3.471-3.471,8.678-3.471,12.149,0
	c3.471,3.471,3.471,8.678,0,12.149l-45.993,45.993h48.597c3.471,0,6.942,1.736,7.81,5.207c1.736,3.471,0.868,6.942-1.736,9.546
	l-60.746,60.746C234.305,294.183,232.569,295.051,229.966,295.051"/>
<g>
</g>
<g>
</g>
<g>
</g>
<g>
</g>
<g>
</g>
<g>
</g>
<g>
</g>
<g>
</g>
<g>
</g>
<g>
</g>
<g>
</g>
<g>
</g>
<g>
</g>
<g>
</g>
<g>
</g>
</svg>
