<?xml version="1.0" encoding="iso-8859-1"?>
<!-- Generator: Adobe Illustrator 19.0.0, SVG Export Plug-In . SVG Version: 6.00 Build 0)  -->
<svg version="1.1" id="Layer_1" xmlns="http://www.w3.org/2000/svg" xmlns:xlink="http://www.w3.org/1999/xlink" x="0px" y="0px"
	 viewBox="0 0 502 502" style="enable-background:new 0 0 502 502;" xml:space="preserve">
<g>
	<g>
		<path style="fill:#E6E6E6;" d="M396.584,319.591v26.826L492,251l-95.416-95.416v26.825c0,16.012-12.981,28.993-28.993,28.993H329
			c-21.209,0-38.402-17.193-38.402-38.402v-38.591c0-16.012,12.981-28.993,28.993-28.993h26.826L251,10l-95.416,95.416h26.826
			c16.012,0,28.993,12.981,28.993,28.993V173c0,21.209-17.193,38.402-38.402,38.402H134.41c-16.012,0-28.993-12.981-28.993-28.993
			v-26.826L10,251l95.416,95.416V319.59c0-16.012,12.981-28.993,28.993-28.993H173c21.209,0,38.402,17.193,38.402,38.402v38.591
			c0,16.012-12.981,28.993-28.993,28.993h-26.825L251,492l95.416-95.416H319.59c-16.012,0-28.993-12.981-28.993-28.993V329
			c0-21.209,17.193-38.402,38.402-38.402h38.591C383.603,290.598,396.584,303.579,396.584,319.591z"/>
		<path d="M251,502c-2.652,0-5.196-1.054-7.071-2.929l-95.416-95.416c-2.86-2.86-3.715-7.161-2.167-10.898s5.194-6.173,9.239-6.173
			h26.825c10.473,0,18.993-8.521,18.993-18.993V329c0-15.661-12.741-28.402-28.402-28.402H134.41
			c-10.473,0-18.993,8.52-18.993,18.993v26.826c0,4.044-2.437,7.691-6.173,9.239c-3.737,1.547-8.038,0.691-10.898-2.167
			L2.929,258.072c-3.905-3.905-3.905-10.237,0-14.143l95.417-95.417c2.86-2.859,7.161-3.716,10.898-2.167
			c3.737,1.548,6.173,5.194,6.173,9.239v26.826c0,10.473,8.52,18.993,18.993,18.993H173c15.661,0,28.402-12.741,28.402-28.402
			V134.41c0-10.473-8.52-18.993-18.993-18.993h-26.826c-4.044,0-7.691-2.437-9.239-6.173s-0.692-8.038,2.167-10.898l95.417-95.417
			C245.804,1.054,248.348,0,251,0s5.195,1.054,7.071,2.929l95.416,95.417c2.859,2.86,3.715,7.161,2.168,10.898
			c-1.548,3.737-5.194,6.173-9.239,6.173h-26.825c-10.473,0-18.993,8.52-18.993,18.993V173c0,15.661,12.741,28.402,28.402,28.402
			h38.591c10.473,0,18.993-8.52,18.993-18.993v-26.826c0-4.044,2.437-7.691,6.173-9.239c3.737-1.547,8.038-0.692,10.898,2.167
			l95.416,95.417c3.905,3.905,3.905,10.237,0,14.143l-95.416,95.417c-2.86,2.859-7.161,3.716-10.898,2.167
			c-3.736-1.548-6.173-5.194-6.173-9.239V319.59c0-10.473-8.521-18.993-18.993-18.993H329c-15.661,0-28.402,12.741-28.402,28.402
			v38.591c0,10.473,8.521,18.993,18.993,18.993h26.825c4.045,0,7.691,2.437,9.239,6.173c1.547,3.737,0.691,8.038-2.168,10.898
			l-95.416,95.417C256.196,500.947,253.653,502,251,502z M179.726,406.584L251,477.858l71.273-71.274h-2.683
			c-21.501,0-38.993-17.492-38.993-38.993V329c0-26.689,21.713-48.402,48.402-48.402h38.591c21.501,0,38.993,17.492,38.993,38.993
			v2.684L477.858,251l-71.273-71.274v2.684c0,21.5-17.492,38.993-38.993,38.993H329c-26.689,0-48.402-21.713-48.402-48.402V134.41
			c0-21.5,17.492-38.993,38.993-38.993h2.683L251,24.142l-71.274,71.274h2.684c21.5,0,38.993,17.492,38.993,38.993V173
			c0,26.689-21.713,48.402-48.402,48.402H134.41c-21.5,0-38.993-17.492-38.993-38.993v-2.684L24.142,251l71.274,71.274v-2.684
			c0-21.5,17.492-38.993,38.993-38.993H173c26.689,0,48.402,21.713,48.402,48.402v38.591c0,21.501-17.492,38.993-38.993,38.993
			h-2.683V406.584z"/>
	</g>
	<g>
		<path d="M249,61c-2.559,0-5.119-0.976-7.071-2.929c-3.905-3.905-3.905-10.237,0-14.143l2-2c3.906-3.905,10.237-3.904,14.143,0
			c3.905,3.905,3.905,10.237,0,14.143l-2,2C254.118,60.024,251.559,61,249,61z"/>
	</g>
	<g>
		<path d="M214,96c-2.559,0-5.119-0.976-7.071-2.929c-3.905-3.905-3.905-10.237,0-14.143l14-14c3.905-3.905,10.237-3.905,14.143,0
			c3.905,3.905,3.905,10.237,0,14.143l-14,14C219.119,95.024,216.559,96,214,96z"/>
	</g>
</g>
<g>
</g>
<g>
</g>
<g>
</g>
<g>
</g>
<g>
</g>
<g>
</g>
<g>
</g>
<g>
</g>
<g>
</g>
<g>
</g>
<g>
</g>
<g>
</g>
<g>
</g>
<g>
</g>
<g>
</g>
</svg>
